<svg id="Capa_1" enable-background="new 0 0 497 497" height="512" viewBox="0 0 497 497" width="512" xmlns="http://www.w3.org/2000/svg"><g><path d="m478.882 452.181v-114.638c0-38.337-29.136-69.869-66.472-73.66-2.489-.253-5.015.362-7.57.362-40.893 0-72.361 32.916-72.361 73.809l.002 113.644z" fill="#855b51"/><path d="m412.84 263.93c-37.13 3.99-66.04 35.42-66.04 73.61v113.79l-16 .37v-114.16c0-40.89 33.15-74.04 74.04-74.04 2.7 0 5.37.14 8 .43z" fill="#724d44"/><path d="m425.503 493.89v-77.58l-3.067-9.065 3.067-26.629h-41.328l1.75 42.124-1.75 14v57.15l20.657 3.11z" fill="#c48958"/><path d="m383.372 424.691-40.617 16.079 4.933 56.23h57.144l-2.982-3.281c-14.235-15.664-17.009-35.897-17.547-56.979-.118-4.639-.931-7.367-.931-12.049z" fill="#ffd163"/><path d="m384.31 436.74-.13.05-40.32 16.57-1.19-13.56 41.51-17.06 1.745 6.973z" fill="#ffb65f"/><path d="m467.918 440.216-42.415-17.477c0 25.612-.277 51.953-17.828 71.152l-2.843 3.11h68.568c5.529 0 10.01-4.482 10.01-10.01v-23.636c0-10.14-6.117-19.277-15.492-23.139z" fill="#ffd163"/><path d="m384.18 380.62h-.008s.005 35.633.008 35.634c0 0 .01 15.846.13 20.486l10.391-4.271c1.5-.617 2.479-2.078 2.479-3.7v-4.441c0-1.238 1.114-2.169 2.335-1.963 1.78.301 3.552.454 5.307.454 7.1 0 14.11-2.4 20.67-6.51v-35.69h-41.312z" fill="#b27a49"/><path d="m360.479 346.479c.089 3.602-1.295 6.386-.538 10.064 5.47 26.573 27.012 53.277 44.892 53.277 20.671 0 46.203-35.644 46.203-65.551 0-18.51-6.243-34.851-18.092-44.617-2.466-2.032-4.495-1.844-7.44-3.267-.928-.449-2.02.073-2.27 1.073-5.526 22.077-24.255 40.187-47.095 44.936l-14.395 2.494c-.746.159-1.265 1.591-1.265 1.591z" fill="#c48958"/><path d="m379.147 352.285c26.379-5.688 47.678-27.086 53.79-52.626-2.466-2.032-5.168-3.787-8.113-5.21-.928-.448-2.02.073-2.27 1.073-5.526 22.077-23.92 40.325-46.759 45.073l-15.885 3.399c-.745.159-1.274.823-1.265 1.584v.007c.089 3.602.544 7.278 1.301 10.956z" fill="#b27a49"/><path d="m170.732 446.599-57.907-20.631c-10.901 12.583-29.79 11.14-40.686-1.447l-41.8 17.371c-9.374 3.863-15.749 11.323-15.749 21.462v22.636c0 5.529 4.482 10.01 10.01 10.01l1.99 1h44.9l20.01-2.564 21.32 2.564h36.94l20.972-3.713z" fill="#bae6ef"/><path d="m111.372 390.626h-37.872l.17 30.065c3.598 4.153 5.969 9 10.826 10.411 9.851 2.862 21.015.082 28.316-8.339l.013-.015v-15.878z" fill="#f2d1a5"/><path d="m80.649 431.245-43.547 19.709-3.071 1.286c-4.52 1.86-7.44 6.22-7.44 11.11v33.65h-2.991c-5.53 0-10.01-4.48-10.01-10.01v-23.64c0-10.13 6.12-19.27 15.49-23.13l40.505-15.699c2.823 2.821 11.064 6.724 11.064 6.724z" fill="#94d8e6"/><path d="m160.04 442.19-47.22 54.81h-41.33l-34.386-46.048-6.668-10.175 22.638-7.872 18.426-10.165c10.89 12.59 30.42 12.59 41.32.01v-.01z" fill="#f8f7f7"/><path d="m84.5 390.63h-13v16.25 15.88 2.027l10.33 6.426s2.333-.271 2.67-.133v-16.713c0-1.227 1.095-2.156 2.307-1.968 1.782.277 3.565.421 5.343.421 6.93 0 13.96-2.16 20.67-5.95v-16.24z" fill="#f2bb88"/><g><path d="m84.5 431.09v.01l-47.4 19.85-8.01-10.73 42.41-17.48c.689.342 3.435 5.318 13 8.35z" fill="#e8e8e8"/></g><path d="m139.747 334.561c0-31.454-16.14-50.635-47.593-50.635s-47.594 19.181-47.594 50.635c0 6.642.198 13.39 2.293 19.901 7.825 24.323 28.163 45.358 45.3 45.358 16.993 0 37.11-20.654 45.085-44.694 2.229-6.716 2.509-13.697 2.509-20.565z" fill="#f2d1a5"/><path d="m119.008 290.23c-3.347.375-6.474 1.211-9.108 2.35l-.038.101c-.239-2.476-.878-4.795-1.933-6.872-4.772-1.237-10.032-1.884-15.775-1.884-31.454 0-48.593 19.181-48.593 50.635 0 6.642 1.209 13.386 3.304 19.898.697-.633 1.451-1.342 2.273-2.181 6.229-6.358 16.703-16.905 29.057-22.298 7.555-3.298 13.949-4.208 18.892-8.509.965-.84 2.429-.614 3.073.491 2.254 3.868 7.266 9.187 17.384 15.198 8.626 5.125 15.957 12.383 19.695 17.966 2.228-6.716 3.509-13.696 3.509-20.564-.001-20.832-7.526-36.272-21.74-44.331z" fill="#f2bb88"/><path d="m109.98 280.67c3.553-1.541 7.941-3.615 12.63-3.656 7.214-.063 14.961 2.115 20.741 7.968 18.92 19.157 8.986 48.698 1.719 61.665-.677 1.207-2.331 1.395-3.247.358-3.636-4.114-12.585-13.525-24.596-21.214-3.908-2.502-7.278-5.441-10.031-8.62-3.204-3.699-4.208-8.522-5.612-12.554z" fill="#8e868e"/><path d="m120.6 295.78c-2.69 7.95-7.32 15.24-13.39 21.38-3.22-3.69-5.59-7.71-6.99-11.74l9.68-25.84c3.56-1.54 8.02-2.53 12.71-2.57.82 5.92.16 12.35-2.01 18.77z" fill="#766d78"/><path d="m107.132 271.398c-3.308-5.167-9.22-8.426-16.476-9.582-11.616-1.85-26.125 3.516-39.454 13.258-25.128 18.365-19.988 54.345-12.106 70.319.673 1.365 2.537 1.533 3.429.3 1.374-1.897 3.553-3.294 6.612-6.417 6.229-6.358 16.077-14.21 30.057-19.298 25.205-9.173 36.54-35.142 27.938-48.58z" fill="#8e868e"/><path d="m90.77 261.84c-8.8 1.26-18.34 4.99-27.12 11.41-21.8 15.93-20.41 47.51-14.51 66.03-3.06 3.12-5.25 5.88-6.62 7.78-.89 1.23-2.76 1.06-3.43-.3-7.88-15.98-13.57-55.14 11.56-73.51 13.38-9.78 28.49-13.31 40.12-11.41z" fill="#766d78"/><path d="m142.521 193.798-23.235-.129c-2.814 0-5.516 1.106-7.523 3.08l-15.65 15.381c-2.098 2.064-5.467 2.052-7.55-.027l-15.333-15.3c-2.011-2.007-4.736-3.134-7.577-3.134h-24.13c-10.663 0-19.307-8.644-19.307-19.307v-67.595c0-8.455 4.435-16.641 12.002-19.254 1.976-.682 4.098-1.053 6.306-1.053h122.911v88.903c0 2.21-.371 4.334-1.055 6.311-2.616 7.563-11.406 12.124-19.859 12.124z" fill="#f8f7f7"/><path d="m162.37 181.67c-2.61 7.56-9.79 13-18.24 13h-23.84c-2.82 0-5.52 1.11-7.53 3.08l-16.65 16.38c-2.09 2.06-5.46 2.05-7.55-.03l-16.33-16.3c-2.01-2-4.74-3.13-7.58-3.13h-24.13c-10.66 0-19.3-8.65-19.3-19.31v-69.59c0-8.46 5.43-15.65 13-18.25v87.84c0 3.48 2.82 6.31 6.3 6.31h24.13c6.33 0 12.28 2.46 16.76 6.93l8.17 8.16c1.56 1.55 4.07 1.56 5.64.02l8.43-8.3c4.43-4.36 10.41-6.81 16.64-6.81z" fill="#e8e8e8"/><g><path d="m90.746 125.856c.891.84 2.289.815 3.185-.02 3.191-2.975 7.512-4.798 12.237-4.784 9.692.029 17.601 7.987 17.463 17.552-.181 12.63-13.658 23.437-22.868 29.359-3.254 2.092-5.968 2.266-7.383 3.004-.66.344-1.445.352-2.112.023-5.514-2.721-29.24-14.806-28.885-32.426.143-7.103 3.618-13.049 9.745-15.745.635-.279 1.272-.922 1.964-1.119 1.439-.411 2.947-.637 4.498-.648 4.726-.033 8.995 1.824 12.156 4.804z" fill="#df646e"/><path d="m100.761 167.96c-3.25 2.09-5.98 3.57-7.39 4.31-.66.35-1.44.36-2.11.03-5.52-2.72-30.6-16.08-30.24-33.7.16-7.84 5.7-14.79 13.07-16.9-2.47 3.03-3.98 6.85-4.07 10.9-.29 14.27 20.06 28.87 30.74 35.36z" fill="#dc4955"/></g><path d="m455.264 193.669h-23.841c-2.814 0-5.516 1.106-7.523 3.08l-15.65 16.381c-2.098 2.064-5.467 2.052-7.55-.027l-15.333-16.3c-2.011-2.007-4.736-3.134-7.577-3.134h-24.13c-10.663 0-19.307-8.644-19.307-19.307l1.275-85.926 19.472-1.977h101.164c10.663 0 19.307 8.644 19.307 19.307v69.595c0 2.21-.371 4.333-1.055 6.311-2.614 7.565-10.799 11.997-19.252 11.997z" fill="#f8f7f7"/><g><path d="m402.885 125.856c.891.84 2.289.815 3.185-.02 3.191-2.975 7.512-4.798 12.237-4.784 9.692.029 17.601 7.987 17.463 17.552-.181 12.63-13.658 23.437-22.868 29.359-3.254 2.092-5.968 2.266-7.383 3.004-.66.344-1.445.352-2.112.023-5.514-2.721-29.24-14.806-28.885-32.426.143-7.103 3.618-13.049 9.745-15.745.635-.279 1.272-.922 1.964-1.119 1.439-.411 2.947-.637 4.498-.648 4.726-.033 8.995 1.824 12.156 4.804z" fill="#df646e"/><path d="m412.9 167.96c-3.25 2.09-5.98 3.57-7.39 4.31-.66.35-1.44.36-2.11.03-5.52-2.72-30.6-16.08-30.24-33.7.16-7.84 5.7-14.79 13.07-16.9-2.47 3.03-3.98 6.85-4.07 10.9-.29 14.27 20.06 28.87 30.74 35.36z" fill="#dc4955"/></g><path d="m432.42 181.67c-6.26 0-12.17 2.42-16.64 6.81l-9.84 9.69c-.78.77-2.04.76-2.82-.01l-9.57-9.56c-4.45-4.44-10.47-6.93-16.76-6.93h-24.13c-3.485 0-6.31-2.825-6.31-6.31v-35.008c0-.476.177-.932.485-1.295.957-1.128 1.82-2.317 2.575-3.568 3.72-6.19 5.69-13.29 5.69-20.53v-28.5h-21.75v88.9c0 10.665 8.645 19.31 19.31 19.31h24.13c2.84 0 5.57 1.13 7.58 3.13l16.33 16.3c2.08 2.08 5.45 2.09 7.55.03l16.65-16.38c2.01-1.97 4.71-3.08 7.52-3.08h23.84c8.46 0 15.64-5.44 18.25-13h-42.09z" fill="#e8e8e8"/><path d="m312.223 139.415-28.903.979c-4.578 0-8.939 1.95-11.991 5.361l-16.784 18.471c-3.001 3.354-8.258 3.333-11.232-.045l-15.524-18.797c-3.055-3.47-7.454-5.458-12.077-5.458l-33.133 1.854c-14.81 0-26.82-12.01-26.82-26.82v-88.14c0-9.755 5.211-18.298 13-22.99 4.036-2.432 8.764-3.83 13.819-3.83h132.704c14.81 0 26.816 12.006 26.816 26.816v88.145c0 5.054-1.398 9.782-3.829 13.818-4.693 7.789-16.29 10.636-26.046 10.636z" fill="#f8f7f7"/><path d="m338.27 128.78c-4.7 7.79-13.24 13-22.99 13h-31.97c-4.58 0-8.94 1.95-12 5.36l-16.74 18.71c-3 3.36-8.26 3.34-11.23-.04l-16.35-18.57c-3.05-3.47-7.45-5.46-12.08-5.46h-32.33c-14.81 0-26.82-12.01-26.82-26.82v-88.14c0-9.75 5.21-18.29 13-22.99v111.13c0 7.63 6.19 13.82 13.82 13.82h32.33c8.36 0 16.32 3.59 21.84 9.87l10.03 11.39c1.18 1.35 3.28 1.35 4.48.01l10.37-11.58c5.51-6.17 13.4-9.69 21.68-9.69z" fill="#e8e8e8"/><path d="m246.51 43.828c1.367 1.288 3.512 1.25 4.886-.03 4.896-4.564 11.525-7.361 18.774-7.34 14.869.044 27.003 12.253 26.792 26.928-.292 20.312-22.997 37.551-37.082 46.304-4.098 2.547-7.161 3.245-9.035 4.222-1.012.528-2.216.541-3.241.035-8.46-4.174-45.394-21.99-44.849-49.021.234-11.604 6.31-23.493 17.021-27.106 2.558-.863 5.274-1.342 8.083-1.361 7.252-.053 13.801 2.798 18.651 7.369z" fill="#df646e"/><path d="m259.88 109.69c-4.1 2.55-7.47 4.38-9.34 5.35-1.01.53-2.22.54-3.24.04-8.46-4.18-46.94-24.66-46.4-51.69.23-11.61 8.16-21.96 18.88-25.56-4.75 4.89-7.74 11.49-7.88 18.56-.46 23.11 32.98 44.86 47.98 53.3z" fill="#dc4955"/><path d="m274.753 350.411h-52.054l2.461 34.706-2.461 18.349.008.01c2.348 2.71 3.989 5.915 6.92 7.854 11.141 7.371 26.663 8.018 37.66 1.404 3.024-1.819 4.995-6.419 7.45-9.25l.016-.018v-22.046l-2.104-3.452z" fill="#e3a76f"/><path d="m329.098 425.858-27.228-11.219-27.12-8.246c-13.731 15.849-38.325 17.279-52.05 1.426l-52.346 18.039c-11.249 4.635-18.59 15.6-18.59 27.766l1 41.375 9.996 2h65.7l21.266-4.819 18.844 4.82h79.118v-43.375c0-12.167-7.341-23.131-18.59-27.767z" fill="#ccf49f"/><path d="m235.7 350.41h-13v31.01 22.05c1.632 1.885.898 5.061 2.8 6.498 2.166 1.636 7.003 1.468 9.42 2.522h.01l-.009-24.681c0-1.289 1.199-2.241 2.454-1.948 3.616.843 7.674 1.73 11.345 1.73 9.52 0 18.23-2.22 26.03-6.17v-31.01h-39.05z" fill="#d6995c"/><path d="m233.777 412.49-30.105 12.878-30.362 12.512c-6.41 2.64-10.55 8.82-10.55 15.74v43.38h-13v-43.38c0-12.16 7.34-23.13 18.59-27.76l27.09-11.16 12.358-3.817 14.362-6.447c3.489 4.03 7.077 6.074 11.617 8.054z" fill="#b3e59f"/><path d="m301.87 414.64c-.65.76-1.09 1.26-1.13 1.31-18.93 22.55-30.2 50.55-32.17 79.94v1.11h-40.11v-.72c-1.59-25.553-10.211-50.075-24.788-70.911-2.474-3.537-3.996-6.635-6.808-9.947l-.3-.39 26.135-10.532c3.492 4.034 7.688 6.011 12.23 7.992 13.304 5.802 29.575 2.797 39.811-9.012l.01-.01z" fill="#f8f7f7"/><path d="m234.92 412.49-31.25 12.88c-2.47-3.54-5.12-6.97-7.93-10.28l-.3-.39 27.26-11.23c2.4 2.77 5.13 5.06 8.08 6.86.27.17.54.33.81.48 1.09.63 2.2 1.18 3.33 1.68z" fill="#e8e8e8"/><path d="m305.33 291.67c0-37.668-18.945-67.852-56.613-67.852s-54.747 30.445-54.747 68.114c0 6.288-2.875 12.867-1.747 19.315 5.63 32.181 25.113 63.339 56.494 63.339 33.414 0 53.339-35.327 57.414-69.6.518-4.363-.801-9.062-.801-13.316z" fill="#e3a76f"/><path d="m306.911 292.023c0-27.544-10.988-51.258-31.615-62.024-.653.818-1.995.303-1.77-.894-7.182-3.4-15.466-5.286-24.809-5.286-37.668 0-58.194 30.536-58.194 68.204 0 6.288.575 12.776 1.703 19.224.875-1.161 2.074-2.01 3.216-3.084 9.854-9.272 23.992-9.604 25.498-19.3.188-1.211 1.334-2.002 2.515-1.674 11.209 3.111 29.408-3.99 35.495-16.315.587-1.189 2.127-1.466 3.124-.592 5.691 4.991 13.186 4.862 16.44 4.518.932-.098 1.81.455 2.113 1.341 5.659 16.542 21.174 10.473 25.5 28.846.52-4.364.784-8.71.784-12.964z" fill="#d6995c"/><g><path d="m312.062 240.797c-.524-.151-1.504-.337-2.317-.479-.64-.112-1.016-.8-.739-1.388 1.53-3.248 2.255-6.95 1.907-10.851-.894-10.019-9.009-18.123-19.03-18.997-6.512-.568-12.472 1.841-16.676 6.015-.572.568-1.531.285-1.686-.506-2.287-11.734-12.617-20.591-25.021-20.591-6.067 0-11.635 2.123-16.013 5.662-.435.351-1.054.288-1.413-.14-3.85-4.591-9.613-7.522-16.074-7.522-10.642 0-19.428 7.918-20.805 18.183-.065.483-.453.848-.94.876-2.348.135-4.625.54-6.798 1.184-12.407 3.677-20.107 15.7-20.107 29.3 0 7.719 2.87 13.577 7.66 18.894.176.195.267.443.251.705-.129 2.035-.7 11.563.941 20.316 3 16 15.321 20.404 15.321 20.404 0-4.716 2.286-6.522 4.92-8.699 6.115-5.055 16.674-5.967 19.337-15.288.139-.486.603-.803 1.1-.716 1.61.282 5.056.841 7.12.841 15.333 0 28.42-9.59 33.608-23.096.267-.695 1.191-.818 1.653-.233 4.487 5.682 11.437 9.33 19.239 9.33 2.3 0 4.524-.321 6.634-.914.516-.145 1.051.147 1.208.659 6.138 20.049 21.493 13.58 21.493 32.293 10.057-4.542 16.069-20.067 18.936-30.384 3.008-10.83-3.299-21.85-13.709-24.858z" fill="#855b51"/></g><g><path d="m195.44 293.16c-2.63 2.18-4.345 5.216-4.345 9.936 0 0-14.095-5.096-17.095-21.096-1.64-8.75-1.17-18.19-1.04-20.23.02-.26-.08-.51-.25-.7-4.79-5.32-7.71-12.35-7.71-20.07 0-13.6 9.05-25.08 21.46-28.75-6.41 5.5-10.46 13.65-10.46 22.75 0 7.72 2.92 14.75 7.71 20.07.17.19.27.44.25.7-.13 2.04-.6 11.48 1.04 20.23 1.61 8.57 6.37 13.98 10.44 17.16z" fill="#724d44"/></g></g></svg>