<svg id="Capa_1" enable-background="new 0 0 512 512" height="512" viewBox="0 0 512 512" width="512" xmlns="http://www.w3.org/2000/svg"><g><path d="m457 512h-220c-30.327 0-55-24.673-55-55v-260c0-3.245 1.053-6.403 3-9l90-120c2.833-3.777 7.278-6 12-6h120c4.722 0 9.167 2.223 12 6l90 120c1.947 2.597 3 5.755 3 9v260c0 30.327-24.673 55-55 55z" fill="#ff8659"/><path d="m509 188-90-120c-2.833-3.777-7.278-6-12-6h-60v450h110c30.327 0 55-24.673 55-55v-260c0-3.245-1.053-6.403-3-9z" fill="#ff6326"/><path d="m171.647 442.801-155.564-155.564c-21.445-21.445-21.445-56.337 0-77.782l183.848-183.847c2.295-2.295 5.272-3.783 8.485-4.243l148.493-21.213c4.674-.668 9.389.904 12.728 4.243l84.853 84.853c3.339 3.339 4.91 8.054 4.243 12.728l-21.213 148.492c-.459 3.213-1.948 6.191-4.243 8.485l-183.848 183.848c-21.445 21.444-56.338 21.444-77.782 0z" fill="#fff16b"/><path d="m437.519 250.468 21.213-148.492c.668-4.674-.904-9.389-4.243-12.728l-42.426-42.426-318.198 318.197 77.782 77.782c21.445 21.445 56.337 21.445 77.782 0l183.848-183.848c2.294-2.295 3.783-5.272 4.242-8.485z" fill="#ffb454"/><path d="m178.724 350.887c-3.891-3.891-5.488-9.785-3.629-15.36l70.711-212.132c2.619-7.859 11.114-12.107 18.973-9.487 7.862 2.619 12.106 11.113 9.487 18.973l-70.711 212.132c-2.619 7.859-11.114 12.107-18.973 9.487-2.285-.761-4.264-2.019-5.858-3.613z" fill="#ff7038"/><path d="m348.438 202.37c-17.554-17.554-46.115-17.554-63.669 0s-17.554 46.115 0 63.669 46.115 17.554 63.669 0 17.554-46.116 0-63.669zm-21.223 42.446c-5.851 5.851-15.372 5.851-21.223 0s-5.851-15.372 0-21.223 15.372-5.851 21.223 0 5.852 15.371 0 21.223z" fill="#ff405c"/><path d="m164.591 202.37c-17.554-17.554-46.115-17.554-63.669 0s-17.554 46.115 0 63.669 46.115 17.554 63.669 0 17.554-46.116 0-63.669zm-21.223 42.446c-5.851 5.851-15.372 5.851-21.223 0s-5.851-15.372 0-21.223 15.372-5.851 21.223 0 5.851 15.371 0 21.223z" fill="#ff7038"/><path d="m203.554 345.013 44.842-134.526-47.433 47.433-25.869 77.606c-1.859 5.575-.262 11.469 3.629 15.36 1.594 1.594 3.573 2.852 5.857 3.613 7.86 2.622 16.355-1.627 18.974-9.486z" fill="#ff405c"/><g><path d="m454.489 4.393c-5.857-5.857-15.355-5.857-21.213 0l-84.852 84.853 21.213 21.213 84.852-84.853c5.859-5.857 5.859-15.356 0-21.213z" fill="#00429b"/><path d="m454.489 25.606c5.858-5.857 5.859-15.355 0-21.213l-95.459 95.459 10.607 10.607z" fill="#002659"/></g><g><path d="m380.244 136.066c-3.839 0-7.678-1.465-10.606-4.394l-42.427-42.427c-5.858-5.857-5.858-15.355 0-21.213 5.857-5.857 15.355-5.857 21.213 0l42.427 42.427c5.858 5.857 5.858 15.355 0 21.213-2.929 2.929-6.768 4.394-10.607 4.394z" fill="#ff8659"/><path d="m390.851 110.459-21.213-21.213-21.213 21.213 21.213 21.213c2.929 2.929 6.768 4.394 10.606 4.394 3.839 0 7.678-1.465 10.606-4.394 5.859-5.857 5.859-15.355.001-21.213z" fill="#ff6326"/></g></g></svg>