<?xml version="1.0" encoding="iso-8859-1"?>
<!-- Generator: Adobe Illustrator 19.0.0, SVG Export Plug-In . SVG Version: 6.00 Build 0)  -->
<svg version="1.1" id="Capa_1" xmlns="http://www.w3.org/2000/svg" xmlns:xlink="http://www.w3.org/1999/xlink" x="0px" y="0px"
	 viewBox="0 0 464 464" style="enable-background:new 0 0 464 464;" xml:space="preserve">
<circle style="fill:#A6001E;" cx="232" cy="264" r="64"/>
<circle style="fill:#F40E34;" cx="232" cy="264" r="48"/>
<path style="fill:#E7B900;" d="M336,88V72l-88-40V16L232,0l-16,16v16l-8,3.636L288,72v16h24c-9.151,24.645-19.839,48.692-32,72
	c-9.315,14.36-20.034,27.76-32,40h48c11.966-12.24,22.685-25.64,32-40c12.161-23.308,22.849-47.355,32-72H336z"/>
<path style="fill:#FFD422;" d="M312,88h-24V72l-80-36.364L128,72v16h-24c9.151,24.645,19.839,48.692,32,72
	c9.318,14.358,20.038,27.757,32,40h80c11.966-12.24,22.685-25.64,32-40C292.161,136.692,302.849,112.645,312,88z"/>
<g>
	<rect x="224" y="352" style="fill:#E7B900;" width="32" height="40"/>
	<path style="fill:#E7B900;" d="M288,424v-32h-32v32c17.673,0,32,14.327,32,32v8h32v-8C320,438.327,305.673,424,288,424z"/>
</g>
<path style="fill:#FFD422;" d="M256,424v-32h-32v-40h-16v40h-32v32c-17.673,0-32,14.327-32,32v8h144v-8
	C288,438.327,273.673,424,256,424z"/>
<g>
	<rect x="152" y="80" style="fill:#FFFFFF;" width="160" height="16"/>
	
		<rect x="139.999" y="103.058" transform="matrix(-0.8944 0.4472 -0.4472 -0.8944 330.4612 145.9942)" style="fill:#FFFFFF;" width="16" height="17.888"/>
	<path style="fill:#FFFFFF;" d="M180.18,167.031c-11.531-6.266-20.938-15.676-27.211-27.211l14.063-7.641
		c4.789,8.816,11.977,16.004,20.789,20.789L180.18,167.031z"/>
</g>
<g>
	<rect x="176" y="408" style="fill:#E7B900;" width="112" height="16"/>
	<rect x="208" y="376" style="fill:#E7B900;" width="48" height="16"/>
	<path style="fill:#E7B900;" d="M425.45,104c-5.529,12.209-14.219,22.904-25.45,30.778c-13.105,10.25-28.922,16.054-45.239,17.011
		L344,176c22.637,3.974,45.896-1.841,64-16c18.485-12.959,30.22-33.495,32-56H425.45z"/>
</g>
<path style="fill:#FFD422;" d="M425.45,104H376l-21.239,47.789c16.317-0.957,32.134-6.761,45.239-17.011
	C411.231,126.904,419.921,116.209,425.45,104z"/>
<path style="fill:#E7B900;" d="M108.955,151.148c-21.666,2.962-43.661-2.845-60.955-16.37c-9.991-7.004-17.923-16.268-23.464-26.814
	C27.313,128.892,38.613,147.811,56,160c18.104,14.159,41.363,19.974,64,16L108.955,151.148z"/>
<g>
	<path style="fill:#FFD422;" d="M48,134.778c17.293,13.525,39.289,19.332,60.955,16.37L88,104H24
		c0.106,1.338,0.361,2.641,0.536,3.964C30.077,118.51,38.009,127.773,48,134.778z"/>
	<path style="fill:#FFD422;" d="M248,304h-16v-60.688l-10.344,10.344l-11.313-11.313l16-16c1.5-1.5,3.531-2.344,5.656-2.344h8
		c4.422,0,8,3.582,8,8V304z"/>
</g>
<g>
	<path style="fill:#FFFFFF;" d="M192,264h-16c0-30.879,25.125-56,56-56v16C209.945,224,192,241.945,192,264z"/>
	<rect x="176" y="280" style="fill:#FFFFFF;" width="16" height="8"/>
</g>
<polygon style="fill:#5AAAE7;" points="368,208 320,240 320,248 368,272 "/>
<g>
	<polygon style="fill:#1E81CE;" points="368,208 368,272 320,248 320,264 368,296 384,296 384,208 	"/>
	<polygon style="fill:#1E81CE;" points="96,272 96,208 80,208 80,296 96,296 144,264 144,240 	"/>
</g>
<g>
	<polygon style="fill:#5AAAE7;" points="144,240 96,208 96,272 	"/>
	<polygon style="fill:#5AAAE7;" points="144,296 72,368 112,368 164,316 	"/>
</g>
<g>
	<polygon style="fill:#1E81CE;" points="184,336 164,316 112,368 112,408 	"/>
	<polygon style="fill:#1E81CE;" points="280,336 352,408 352,368 300,316 	"/>
</g>
<polygon style="fill:#5AAAE7;" points="320,296 300,316 352,368 392,368 "/>
<g>
</g>
<g>
</g>
<g>
</g>
<g>
</g>
<g>
</g>
<g>
</g>
<g>
</g>
<g>
</g>
<g>
</g>
<g>
</g>
<g>
</g>
<g>
</g>
<g>
</g>
<g>
</g>
<g>
</g>
</svg>
